<svg version="1" xmlns="http://www.w3.org/2000/svg" width="666.667" height="666.667" viewBox="0 0 500.000000 500.000000"><path d="M401.6 35.3c.3 1 .9 1.5 1.2 1.2.3-.3 0-1.1-.7-1.8-1-.9-1.1-.8-.5.6zM409.6 35.3c.3 1 .9 1.5 1.2 1.2.3-.3 0-1.1-.7-1.8-1-.9-1.1-.8-.5.6zM283 38.1c0 .5.5.7 1 .4.6-.3 1-.8 1-1.1 0-.2-.4-.4-1-.4-.5 0-1 .5-1 1.1z"/><path d="M99.4 39.1c-.3.6-2 .9-3.6.7-1.6-.3-3.1-.1-3.4.4-.3.5-1 .5-1.7.1-1.5-.9-5.7-1-5.7-.1 0 .4-1.1.3-2.4-.2-1.5-.5-3.7-.5-5.5 0-1.7.5-3.1.5-3.1 0 0-.4-1.5-.5-3.2-.1-1.8.4-4.3.7-5.5.6-1.3-.1-2.3.2-2.3.6 0 .4-1.2 1-2.7 1.4C53.6 44 45.5 52.2 42 61c-.8 1.9-1.9 3.8-2.4 4.2-.7.5-.6.8.3.8 1.1 0 1.1.3.1 1.5-.7.8-.9 1.5-.4 1.5.9 0 .9 11.8 0 12.7-.2.2-.1 1.7.4 3.3.5 1.9.4 3.7-.5 5.4-1 1.8-1 2.5-.2 2.3.7-.1 1.1.3 1 .9-.2 1.1-.4 6-.3 9.6.1 7.5 0 14.1-.3 17.8-.2 1.4.1 3.2.4 4.1.4.8.4 2.1-.1 2.9-.5.8-.4 2.2.1 3.2.6 1.2.6 1.8 0 1.8s-.6 1.1-.1 2.9c.4 1.6.6 3.2.3 3.5-.3.3-.6 2.8-.7 5.6-.1 4 .3 5.1 1.7 5.6.9.3 1.5 1 1.2 1.5-.3.5.1.6.9.3 1.1-.4 1.6 0 1.6 1.2 0 1.1.3 1.5.8.8s1.4-.7 2.9.1c1.3.7 2 1.5 1.5 2-.4.5-.2.5.5.1.6-.3 4.7 1.1 9 3.1 4.3 2.1 8.3 3.8 8.8 3.8.6.1.9.7.7 1.4-.1.7.2 1 .8.6 1.1-.7 4.1.6 19 7.8 4.7 2.3 8.7 4.2 9 4.2 2.1.3 5 1.8 5 2.6 0 .6.4.8.9.4.5-.3 1.7.3 2.7 1.2 1 1 1.9 1.6 2.1 1.4.8-.7 6.3 2.2 5.7 3-.3.5.2.6 1 .3 2.1-.8 10.8 3.5 9.9 4.8-.3.7-.1.8.6.4 1.6-1.1 8.2 1.6 7.7 3.1-.3.7.1 1 1 .6.8-.3 4 .8 7.2 2.3 3.1 1.6 6 2.7 6.5 2.6.4-.1.7.2.7.8 0 .6.3.9.8.8 1.1-.4 15.2 6.2 15.2 7.2 0 .4.6.7 1.3.7 2.3-.2 9.7 3.5 9 4.6-.3.6-.1.7.6.3.6-.4 2.5 0 4.3.8 1.7.9 3.7 1.6 4.5 1.6.8 0 1.1.4.8 1-.3.6.5 1 1.9 1 2.8 0 4.3 1.5 2.4 2.4-.7.3-.3.3.9 0 1.3-.3 4.1.5 7 2 2.6 1.5 5.4 2.6 6.1 2.6.7 0 1.5.6 1.8 1.4.3.8 1.2 1.2 2 .9.9-.3 1.4.1 1.4 1.3 0 1.3.3 1.5 1.1.7 1.5-1.5 6.2 1.4 5.2 3.1-.5.8-.3.8.8 0 1.6-1.2 8.4 1.7 7.1 3.1-.4.5-.2.5.5.2 1-.6 14 4.7 15.3 6.2.3.3 1.2.7 2 .9.8.2 1.6.7 1.8 1.2.2.5.9.7 1.7.4.7-.3 1.6-.1 2 .5.8 1.3 6.2 1.5 7 .2.3-.5 1.9-1.2 3.5-1.6 1.7-.4 3-1.1 3-1.6s.3-.8.8-.7c.4.1 2.4-.6 4.6-1.5 2.1-.9 4.3-1.4 4.9-1 .6.3.7.1.3-.5-.8-1.4 6.1-4.5 8.1-3.7.8.2 1.1 0 .8-.5-.7-1.1 3.5-3.1 4.8-2.3.4.2.7 0 .7-.6 0-1 3.8-2.7 5.3-2.3.4.1.7-.2.7-.7 0-.8 7.1-3.7 7.8-3.2.1.1 1.4-.7 2.8-1.8s3.4-1.8 4.4-1.6c1.1.2 2.3-.1 2.6-.7.5-.7.2-.8-.6-.3-.9.6-1.1.4-.6-.4.5-.7 1.4-1 2.2-.7.8.3 1.4.1 1.4-.5s.7-.8 1.6-.5c.8.3 1.2.2.9-.3-.5-.9 2.3-2.4 3.5-1.9.3.2 1.6-.5 2.9-1.4 1.3-.9 3-1.4 3.8-1.1.8.3 1.3 0 1.1-.8-.2-.9.5-1.4 1.9-1.3 1.3.1 2.1-.2 1.8-.5-.4-.8 8.5-4.8 9.7-4.3.5.1.8-.2.8-.6 0-1.3 5-3.3 6.2-2.6.7.4.8.2.4-.4-1-1.6.7-1.5 2.3 0 1 1.1 1.1 1 .6-.3-.7-1.8 1.9-3.4 3.7-2.2.6.3.8.1.5-.4-.8-1.3 2-2.6 3.5-1.6.6.3.8.1.5-.4-.4-.6.8-1.7 2.6-2.4 1.7-.7 6.2-2.7 10-4.5 3.7-1.8 6.5-2.7 6.1-2.1-.3.7.2.3 1-.7.9-1.1 1.6-1.6 1.6-1.2 0 .4 2.4-.6 5.4-2.3 3-1.6 5.7-2.7 6-2.4.3.4.6.1.6-.5 0-.7.3-1.1.8-1 .4.1 1.7-.3 3-1 1.2-.7 2.8-1 3.4-.6.6.4.8.3.5-.3-.8-1.2 2-2.6 3.4-1.7.5.3.9.1.9-.5 0-1.2 10.9-6.3 12.1-5.5.5.3.9 0 .9-.7 0-.8.4-.8 1.5.1 1.3 1.1 1.4 1 .8-.5-.5-1.5-.3-1.7 1.1-1.2.9.4 1.5.3 1.2-.1-.5-.8 23.1-11.9 24.5-11.5.5.2.9-.1.9-.5 0-.5 1.2-1.4 2.6-2 2-1 2.4-1 1.9 0-.4.7-.1.6.7-.2 1.1-1.3 3.3-2.6 8.2-4.8.5-.3.5.2.1.9-.6 1.1-.5 1.1.4.3 1.2-1.1 2.1-15.4 1-15.4-.3 0-.6-.7-.6-1.5s.3-1.5.6-1.5.6-1.8.6-4-.2-4-.5-4c-1.2 0-.1-24.2 1.2-25.8 1.1-1.3 1.1-1.4 0-.8-1 .6-1.3.1-1-2 .2-1.8.8-2.8 1.6-2.6.8.1 1.1-.2.7-.8-.3-.6-1-.8-1.5-.5-.4.3-1-1.1-1.2-3-.2-1.9-.2-3.5.2-3.5.3 0 .5-2 .5-4.5s-.4-4.5-.9-4.5-.4-.6.1-1.3c1.8-2.4-.5-15-3.8-20.6-5-8.3-14.4-14.7-22.8-15.5-2.3-.2-4.4-.6-4.7-.9-.3-.3-1.8-.2-3.2.3-1.5.4-3.7.3-5-.1-1.2-.5-3.3-.4-4.7.1-2.3.9-2.9.6-2.6-1.2 0-.4-1.1-.1-2.5.7-2.9 1.4-6.7.9-5.7-.9.5-.8.3-.8-.8.1-2 1.6-7.5 2.1-7.2.6.2-.8-.5-.8-2.3.2-2.9 1.4-6.7.9-5.7-.9.4-.6 0-.6-.9.2-.9.7-2.9 1.2-4.4 1.2-1.6 0-4.8 0-7.1.1-2.4.2-4.6 0-4.9-.4-.4-.3-1.4-.2-2.4.3s-1.9.7-2.1.5c-.3-.2-2.9-.4-5.9-.4-3-.1-6.6-.1-8-.2h-3.5c-6.4.4-9.6.4-10.1-.2-.4-.3-1.4-.2-2.3.3-1 .5-2.2.5-2.9.1-.6-.4-3.7-.4-6.8-.1-3 .3-5.7.3-6-.2-.3-.4-1.4-.3-2.5.2-1.7 1-2.3.7-2-1.2 0-.4-1.1-.1-2.5.7-2.9 1.4-6.7.9-5.7-.9.5-.8.3-.8-.8.1-2 1.6-7.5 2.1-7.2.6.2-.8-.5-.8-2.3.2-2.9 1.4-6.7.9-5.7-.9.4-.6-.1-.5-1 .3-1.3 1-4.4 1.3-11.5 1.2-5.3-.2-10.1-.2-10.7-.2-7.5.4-9.6.4-10.1-.1-.3-.4-1.8-.3-3.3.2-1.5.4-3.5.3-4.4-.2-1-.5-1.7-.6-1.7-.2 0 .3-.8 0-1.7-.7-1.4-1.2-1.6-1.2-.8 0 .6 1.1.3 1.3-1.3.9-1.2-.4-2.2-.3-2.2 0 0 .4-3.3.6-7.2.4-7.6-.3-13.2-.3-15.2.1-.6.1-1-.3-.9-1 .2-.8-.4-.8-2.3.2-2.9 1.4-6.7.9-5.7-.9.5-.8.3-.8-.8.1-2 1.6-7.5 2.1-7.2.6.2-.8-.5-.8-2.3.2-2.9 1.4-6.7.9-5.7-.9.4-.6 0-.6-.9.2-.9.7-2.9 1.2-4.4 1.2-1.6 0-4.8 0-7.1.1-2.4.2-4.6 0-4.9-.4-.4-.3-1.4-.2-2.4.3s-1.9.7-2.1.5c-.3-.2-2.9-.4-5.9-.4-3-.1-6.6-.1-8-.2h-3.5c-6.4.4-9.6.4-10.1-.2-.4-.3-1.4-.2-2.3.3-1 .5-2.2.5-2.9.1-.6-.4-3.7-.4-6.8-.1-3 .3-5.7.3-6-.2-.3-.4-1.4-.3-2.5.2-1.7 1-2.3.7-2-1.2 0-.4-1.1-.1-2.5.7-2.9 1.4-6.7.9-5.7-.9.5-.8.3-.8-.8.1-2 1.6-7.5 2.1-7.2.6.2-.8-.5-.8-2.3.2-2.6 1.3-6.8.9-5.8-.6.3-.5.3-.9 0-.9s-.8.5-1.2 1.1zM57.5 40c.3.5.8 1 1.1 1 .2 0 .4-.5.4-1 0-.6-.5-1-1.1-1-.5 0-.7.4-.4 1zM34 81.4c0 .2.8 1 1.8 1.7 1.5 1.3 1.6 1.2.3-.4S34 80.6 34 81.4z"/><path d="M461 106c0 .5.5 1 1.1 1 .5 0 .7-.5.4-1-.3-.6-.8-1-1.1-1-.2 0-.4.4-.4 1zM461 110.1c0 .5.5.7 1 .4.6-.3 1-.8 1-1.1 0-.2-.4-.4-1-.4-.5 0-1 .5-1 1.1zM36.6 114.2c.3.5 1 .6 1.5.3 1.3-.9 1.1-1.2-.6-1.2-.8 0-1.2.4-.9.9zM53.5 160c.3.5.8 1 1.1 1 .2 0 .4-.5.4-1 0-.6-.5-1-1.1-1-.5 0-.7.4-.4 1zM57.6 161.8c-.3.5.1.9.9.9s1.2-.4.9-.9c-.3-.4-.7-.8-.9-.8-.2 0-.6.4-.9.8zM54 163.4c0 .2.8 1 1.8 1.7 1.5 1.3 1.6 1.2.3-.4s-2.1-2.1-2.1-1.3zM65.5 166c-.3.5-.1 1 .4 1 .6 0 1.1-.5 1.1-1 0-.6-.2-1-.4-1-.3 0-.8.4-1.1 1zM81 172.1c0 .5.5.7 1 .4.6-.3 1-.8 1-1.1 0-.2-.4-.4-1-.4-.5 0-1 .5-1 1.1zM409 176c0 .5.5 1 1.1 1 .5 0 .7-.5.4-1-.3-.6-.8-1-1.1-1-.2 0-.4.4-.4 1zM99.5 181.1c-.4.6-.5 1.2-.2 1.5.2.3.7-.2 1-1.1.7-1.7.1-2-.8-.4zM403 184.4c.7.7 1.3.7 2 0 .6-.6.3-1-1-1s-1.6.4-1 1zM389 186.1c0 .5.5.7 1 .4.6-.3 1-.8 1-1.1 0-.2-.4-.4-1-.4-.5 0-1 .5-1 1.1zM115 189.4c0 .2.7.7 1.6 1 .8.3 1.2.2.9-.4-.6-1-2.5-1.4-2.5-.6zM381 190.1c0 .5.5.7 1 .4.6-.3 1-.8 1-1.1 0-.2-.4-.4-1-.4-.5 0-1 .5-1 1.1zM127.5 193c-.4.6-1.1.7-1.7.4-.7-.4-.8-.2-.4.5.6.9 1.1.9 2.2 0 1.4-1.1 1.8-1.9 1-1.9-.3 0-.8.5-1.1 1zM369.6 193.8c-.3.5.1.9.9.9s1.2-.4.9-.9c-.3-.4-.7-.8-.9-.8-.2 0-.6.4-.9.8zM139.5 199.1c-.4.6-.5 1.2-.2 1.5.2.3.7-.2 1-1.1.7-1.7.1-2-.8-.4zM369.9 200.7c-1.3 1.7-1.3 1.7.6.3 1.1-.8 2.2-1.6 2.4-1.7.2-.2 0-.3-.6-.3s-1.7.8-2.4 1.7zM356.5 202c-.3.6.1.7.9.4 1.8-.7 2.1-1.4.7-1.4-.6 0-1.3.4-1.6 1zM160.5 210c-.3.6.1.7.9.4 1.8-.7 2.1-1.4.7-1.4-.6 0-1.3.4-1.6 1zM179 218.1c0 .5.5.7 1 .4.6-.3 1-.8 1-1.1 0-.2-.4-.4-1-.4-.5 0-1 .5-1 1.1zM195 227.9c0 .6.4 1.3 1 1.6.6.3.7-.1.4-.9-.7-1.8-1.4-2.1-1.4-.7zM300.6 228.2c.3.5 1 .6 1.5.3 1.3-.9 1.1-1.2-.6-1.2-.8 0-1.2.4-.9.9zM295.4 229.8c.4.3 1.4.7 2.2.8.9.1 1.3 0 1-.4-.4-.3-1.4-.7-2.2-.8-.9-.1-1.3 0-1 .4zM289 232c0 .5.5 1 1.1 1 .5 0 .7-.5.4-1-.3-.6-.8-1-1.1-1-.2 0-.4.4-.4 1zM235.6 248.2c.3.5 1 .6 1.5.3 1.3-.9 1.1-1.2-.6-1.2-.8 0-1.2.4-.9.9zM39.8 250.7c-.2 1-.1 4.4.2 7.5.3 3.2.2 6.6-.2 7.7-.4 1.1-.3 2.3.2 2.6.5.3.6 1.5.1 2.7-.4 1.2-.5 3.7-.1 5.5.5 2 .3 4.1-.5 5.7-1 1.9-1 2.5-.2 2.3.7-.1 1.1.3 1 .9-.2 1.1-.4 6-.3 9.6v4.3c.1 1.4.1 3.7.1 5.2 0 2.8-.1 11.1-.2 14.8v3.2c.1.7.1 3.2.1 5.5 0 10.8.2 15.3.5 15.7.2.2.1 1.1-.4 2-.5.9-.5 2.5-.1 3.6s.3 3-.1 4.3c-.5 1.4-.5 3.1 0 4.1.7 1.2.5 2.6-.4 4.4-.7 1.5-1.1 2.6-.7 2.6 1.7-.3 1.9.3 1.2 3.8-.5 2-.5 4.4 0 5.3.6 1.1.4 2.6-.5 4.3-.7 1.5-1.1 2.6-.7 2.6 1.9-.3 2.2.3 1.2 2-.7 1.4-.7 2.2 0 2.6.6.4.8 1 .6 1.4-.4.6-.6 4.6-.6 12.3v3c-.1.7.1 3 .2 5.1.2 2.1 0 4.3-.3 4.9-.4.6-.3 2.4.1 3.9.5 1.6.6 2.9.2 2.9-.4 0-.7 2.5-.7 5.5s.4 5.5.9 5.5.3.7-.4 1.5c-.9 1-.9 1.5-.1 1.5.6 0 1.1.9 1.1 1.9 0 1.1.5 3.2 1.1 4.8.6 1.5.9 2.8.7 2.8-.2 0 .7 1.1 1.9 2.4 1.2 1.3 2 2.8 1.7 3.3-.3.4.2.8 1 .8 1.5 0 2.1 1.3 1.6 3.5-.1.5.2.7.5.3.7-.6 9 3.5 10.5 5.2.3.3 1.8.6 3.5.8 1.6.2 3.6.9 4.4 1.5.8.7 1.2.7.9.2-.4-.6 1.8-1 5.8-1 3.5 0 6.4.2 6.4.5s2.4.4 5.2.2c8.5-.4 13.8-.3 14.8.3.4.3 1.1-.1 1.3-.7.4-1 .6-1 .6 0 .1.9.6 1 2 .3 1-.6 2.1-.7 2.5-.4.4.4 2.5.6 4.8.4 2.6-.2 3.8.1 3.4.8-.4.6.3.5 1.7-.2 3-1.6 15-1 14 .6-.4.7 0 .7.9-.1 2-1.6 12.7-2.1 12.9-.7.1.5.1 1.4 0 1.8-.1.5.3.6.9.2.6-.3.8-1.1.5-1.6-.4-.5 1.7-.9 4.7-.9 2.9 0 7.8 0 10.9-.1 3.1-.1 6.2.2 6.9.6.9.6 1.1.4.5-.5-.5-.8-.4-1.1.2-.7.8.5 6.3.7 14.8.7 1.1 0 5.1 0 8.8.1 3.8 0 7.1-.1 7.3-.4.2-.2.5-25.3.7-55.8.2-45.4.4-55.4 1.5-55.1.8.1 1.1-.2.7-.8-.3-.6-1.1-.8-1.6-.5-.5.4-.9-4.8-.8-12.7 0-8.6-.4-13.4-1.1-13.6-.6-.2-1.7-1-2.5-1.8s-1.8-1.5-2.2-1.6c-.4 0-1.9-.5-3.3-1.1-1.4-.6-2.7-1.1-3-1.2-3.4-.9-4.9-1.8-4.4-2.7.4-.6.2-.8-.4-.5-1.3.9-4.4-.2-3.7-1.3.3-.5-.4-.6-1.5-.3s-2 0-2-.6-.7-1.1-1.5-1.1c-2.5 0-6.5-2.2-5.8-3.3.3-.6.1-.7-.5-.3-.6.4-3.6-.5-6.5-1.9-3-1.4-5.9-2.5-6.5-2.5-.7 0-1.2-.4-1.2-1 0-.5-.3-.9-.7-.9-2.1.3-3.3-.2-2.7-1.3.4-.7.3-.8-.4-.4-1.7 1-5.4-1.2-4.5-2.7.5-.9.3-.9-.8-.1-1.1.9-2.2.8-4.6-.6-1.8-.9-2.9-2.1-2.5-2.5.4-.5.1-.5-.6-.1-1.3.8-9.4-2.3-8.7-3.4.2-.3-.5-.7-1.6-.7-3.3-.3-11.9-4.5-11.2-5.6.3-.6.1-.7-.5-.3-1.3.8-9.2-2.2-9.2-3.5 0-.5-.3-.8-.7-.7-.5.1-1.8-.2-3.1-.6-2-.7-2.1-1-1-2.4 1.2-1.5 1.1-1.6-.5-.3-1.5 1.2-2.2 1.2-4.5 0-1.5-.7-3.6-2-4.6-2.9-1.1-.8-1.6-1-1.3-.3.4.6-1.9-.1-5-1.6-13-6.3-17-8.1-18.1-8.1-.7 0-1.2-.5-1.2-1s-.3-.9-.7-.9c-2.6.4-4.5-.3-4-1.4.4-1-.2-1.3-1.9-.9-1.6.3-2.6-.1-3-1.2-.3-.9-1-1.4-1.4-1.1-.4.3-3.7-.9-7.4-2.5-7.6-3.5-8.3-3.6-8.8-1.3zM452.5 251.5c-6.7 3.2-10.8 4.9-11.7 4.7-.5-.1-.8.2-.8.8 0 .5-.7 1-1.5 1-.9 0-2.7.7-4 1.6-1.4.9-3.2 1.4-4 1-.8-.3-1.4 0-1.2.6.1.7-.6 1.3-1.5 1.6-.9.2-4.3 1.6-7.5 3.2-4.2 2-6.2 2.5-7.1 1.7-.7-.5-1.5-.7-1.9-.3-.3.3-.1.6.5.6.7 0 1.2.4 1.2.9 0 1.2-6 3.2-7.3 2.4-.5-.3-.7-.1-.3.5.6 1-3 2.8-4.6 2.4-.5-.1-.8.3-.8.9 0 .5-.4.7-1 .4-.5-.3-1-.1-1 .5s-.4.8-1 .5c-.5-.3-1-.1-1 .4 0 .6-.5 1.1-1.2 1.1-1.1 0-3.5 1.1-14.2 6.1-2.2 1-4.3 1.6-4.7 1.4-.4-.3-.9.1-1.2.9-.3.7-1.7 1.6-3 2-1.4.3-5.9 2.2-10.1 4.1-4.2 2-8 3.4-8.5 3-.5-.3-1.3 0-1.7.6-.5.8-.3.9.6.4.9-.6 1.1-.4.5.4-.4.7-1.6 1.1-2.6.8-1.1-.3-1.7-.2-1.4.2.2.5-.7 1.3-2.1 2-2 .9-2.4.9-1.9-.1.4-.7.1-.6-.7.2-1.1 1.4-4.4 3.1-11.3 6-5.7 2.4-22.5 10-31.2 14.2l-2.3 1.1V353c0 23.9-.3 31.9-1.2 32.9-1 1.1-1 1.3 0 .7.7-.4 1.2-.2 1.2.6s-.6 2-1.2 2.7c-1 1.1-1 1.3 0 .7.9-.6 1.2 1.4 1.2 8.6 0 6.1-.4 9.9-1.2 10.7-1 1.1-1 1.3 0 .7.7-.4 1.2-.2 1.2.6s-.6 2-1.2 2.7c-1 1.1-1 1.3 0 .7.7-.4 1.2-.2 1.2.6s-.6 2-1.2 2.7c-1 1.1-1 1.3 0 .7.7-.4 1.2-.2 1.2.6s-.6 2-1.2 2.7c-.8.8-.8 1.1-.2.8 1.7-1 1.9 17 .2 19.1-1 1.2-1 1.4 0 .8.9-.5 1.2 1.4 1.2 8.3 0 6.6.3 9.1 1.3 9.2h7.2c12.6-.1 16.9 0 17.3.4.3.2 1.3 0 2.3-.5 1-.6 2-.6 2.3-.1.3.5 2.1.5 4.1.1 3.4-.8 4.1-.3 3.6 2.3-.1.5.3.6.9.2.6-.3.8-1.1.5-1.6-.7-1.1 16.8-1.4 18.6-.4.4.3 1-.1 1.2-.7.4-1 .6-1 .6 0 .1.9.6 1 2 .3 1-.6 2.1-.7 2.5-.4.4.4 2.5.6 4.8.4 2.6-.2 3.8.1 3.4.8-.4.6.3.5 1.7-.2 3-1.6 15-1 14 .6-.4.7 0 .7.9-.1 2-1.6 12.7-2.1 12.9-.7.1.5.1 1.4 0 1.8-.1.5.3.6.9.2.6-.3.8-1.1.5-1.6-.4-.5 1.7-.9 4.7-.9 2.9 0 6-.1 6.8-.1.8 0 2.8.2 4.3.6 2 .4 2.7.2 2.1-.6-.5-.8-.2-.9 1.2-.1 1.2.7 2.5.7 3.6.1 1-.5 1.8-.6 1.8-.2 0 .4 1.8.8 3.9.8 2.2 0 3.7-.3 3.4-.8-.4-.6 2.8-1.2 5-.8.4 0 .7-.2.7-.7 0-.4 1.5-1.3 3.3-2.1 1.7-.8 3.5-1.9 3.9-2.5.4-.6 1.3-.5 2.5.5 1.6 1.2 1.7 1.2.6-.1-.8-1-.9-2.1-.3-3 .6-.8 1-1.1 1-.5 0 .5.6-.1 1.3-1.5.7-1.4 2.1-2.4 3-2.4 1.9.2 2.3-1.2.5-1.8-.8-.3-.4-1.2.9-2.5 1.2-1.2 2-2.3 1.7-2.5-.2-.3.2-2.8 1-5.6.9-3.7 1-5.2.2-5.2-.7 0-.7-.3-.1-.8 1.5-1 1.8-5.5.3-4.6-.6.4-.8.3-.4-.4 1.2-2 1.4-7.2.2-7.2-.7 0-.7-.3-.1-.8 1-.7 1.5-9.2.5-9.2-.6 0-.3-8.8.4-10.7.3-.8 1.1-1.1 1.7-.7.8.4.9.3.5-.5-.4-.6-1.2-.8-1.8-.5-.7.5-.9 0-.6-1.4.4-1.2.3-2.2-.1-2.2s-.5-1.7-.1-3.8c.4-2.2 1.1-3.6 1.9-3.4.7.1 1-.2.6-.8-.3-.6-1.1-.8-1.7-.4-.6.4-.9-.8-.7-3.3.2-2.1-.1-4.5-.6-5.2-.6-1.1-.4-1.3.8-.8.9.3 1.9.2 2.2-.4.4-.5.1-.8-.7-.7-.8.2-1.3-.7-1.2-2.5 0-1.5-.2-2.7-.5-2.7-1.3 0-.2-24.2 1.1-25.8 1.1-1.3 1.1-1.4 0-.8-1 .6-1.2-.2-1.1-3.6.2-2.4-.1-5-.6-5.8-.6-.9-.4-1.1.6-.5 1 .6 1.1.5.3-.4-.6-.7-.8-3.1-.4-6.1.4-2.8.4-5 .1-5-1.3 0-.2-24.2 1.1-25.8 1.1-1.3 1.1-1.4 0-.8-1.1.7-1.3.1-.9-2.7.2-1.9 0-4-.6-4.6-.7-.7-.7-1.1-.1-1.1 1.3 0 1.2-5.3-.1-6.2-.6-.5-.6-.8.1-.8 1.1 0 1.2-3.5.2-4.6-.4-.3-.4-1.6 0-2.8.4-1.1.6-3.5.5-5.1-.1-1.7-.3-5.6-.3-8.8-.1-6.6-.3-6.7-7.5-3.2zM462.7 266.1c.7.7 1.5 1 1.8.7.3-.3-.2-.9-1.2-1.2-1.4-.6-1.5-.5-.6.5zM463.5 280c-.3.5-.1 1 .4 1 .6 0 1.1-.5 1.1-1 0-.6-.2-1-.4-1-.3 0-.8.4-1.1 1z"/><path d="M132.6 287.8c-.3.5.1.9.9.9s1.2-.4.9-.9c-.3-.4-.7-.8-.9-.8-.2 0-.6.4-.9.8zM461 298c0 .5.5 1 1.1 1 .5 0 .7-.5.4-1-.3-.6-.8-1-1.1-1-.2 0-.4.4-.4 1zM461 302.1c0 .5.5.7 1 .4.6-.3 1-.8 1-1.1 0-.2-.4-.4-1-.4-.5 0-1 .5-1 1.1zM36.6 306.2c.3.5 1 .6 1.5.3 1.3-.9 1.1-1.2-.6-1.2-.8 0-1.2.4-.9.9zM207.6 332.7c-.6 1.4-.5 1.5.5.6.7-.7 1-1.5.7-1.8-.3-.3-.9.2-1.2 1.2zM202.6 333.8c-.3.5.1.9.9.9s1.2-.4.9-.9c-.3-.4-.7-.8-.9-.8-.2 0-.6.4-.9.8zM461 346c0 .5.5 1 1.1 1 .5 0 .7-.5.4-1-.3-.6-.8-1-1.1-1-.2 0-.4.4-.4 1zM461 350.1c0 .5.5.7 1 .4.6-.3 1-.8 1-1.1 0-.2-.4-.4-1-.4-.5 0-1 .5-1 1.1zM202 359.4c0 .2.8 1 1.8 1.7 1.5 1.3 1.6 1.2.3-.4s-2.1-2.1-2.1-1.3zM295.6 360.7c-.6 1.4-.5 1.5.5.6.7-.7 1-1.5.7-1.8-.3-.3-.9.2-1.2 1.2zM466 359.4c0 .2.8 1 1.8 1.7 1.5 1.3 1.6 1.2.3-.4s-2.1-2.1-2.1-1.3zM466.9 375.7c-1.3 1.6-1.2 1.7.4.4 1.6-1.3 2.1-2.1 1.3-2.1-.2 0-1 .8-1.7 1.7zM295.6 376.7c-.6 1.4-.5 1.5.5.6.7-.7 1-1.5.7-1.8-.3-.3-.9.2-1.2 1.2zM207.6 393.3c.3 1 .9 1.5 1.2 1.2.3-.3 0-1.1-.7-1.8-1-.9-1.1-.8-.5.6zM203 399.9c0 .6.4 1.3 1 1.6.6.3.7-.1.4-.9-.7-1.8-1.4-2.1-1.4-.7zM207.3 407.5c0 .8.4 1.2.9.9.5-.3.6-1 .3-1.5-.9-1.3-1.2-1.1-1.2.6zM210.7 412.1c.7.7 1.5 1 1.8.7.3-.3-.2-.9-1.2-1.2-1.4-.6-1.5-.5-.6.5zM203.4 415.1c-.3.6-.2 1.5.3 2s.9.1.9-1.1c0-2.3-.2-2.4-1.2-.9zM36.6 422.2c.3.5 1 .6 1.5.3 1.3-.9 1.1-1.2-.6-1.2-.8 0-1.2.4-.9.9zM463 424.1c0 .5.5.7 1 .4.6-.3 1-.8 1-1.1 0-.2-.4-.4-1-.4-.5 0-1 .5-1 1.1zM203 432c0 .5.5 1 1.1 1 .5 0 .7-.5.4-1-.3-.6-.8-1-1.1-1-.2 0-.4.4-.4 1zM461.5 434c.3.5.8 1 1.1 1 .2 0 .4-.5.4-1 0-.6-.5-1-1.1-1-.5 0-.7.4-.4 1zM202.6 448.2c.3.5 1 .6 1.5.3 1.3-.9 1.1-1.2-.6-1.2-.8 0-1.2.4-.9.9zM77 462.1c0 .5.5.7 1 .4.6-.3 1-.8 1-1.1 0-.2-.4-.4-1-.4-.5 0-1 .5-1 1.1zM125 462.1c0 .5.5.7 1 .4.6-.3 1-.8 1-1.1 0-.2-.4-.4-1-.4-.5 0-1 .5-1 1.1zM141 462.1c0 .5.5.7 1 .4.6-.3 1-.8 1-1.1 0-.2-.4-.4-1-.4-.5 0-1 .5-1 1.1zM317.5 462c.3.5.8 1 1.1 1 .2 0 .4-.5.4-1 0-.6-.5-1-1.1-1-.5 0-.7.4-.4 1zM333.5 462c.3.5.8 1 1.1 1 .2 0 .4-.5.4-1 0-.6-.5-1-1.1-1-.5 0-.7.4-.4 1zM381 462.1c0 .5.5.7 1 .4.6-.3 1-.8 1-1.1 0-.2-.4-.4-1-.4-.5 0-1 .5-1 1.1zM397 462.1c0 .5.5.7 1 .4.6-.3 1-.8 1-1.1 0-.2-.4-.4-1-.4-.5 0-1 .5-1 1.1zM429.5 462c.3.5.8 1 1.1 1 .2 0 .4-.5.4-1 0-.6-.5-1-1.1-1-.5 0-.7.4-.4 1zM95 467.9c0 .6.4 1.3 1 1.6.6.3.7-.1.4-.9-.7-1.8-1.4-2.1-1.4-.7z"/></svg>